<svg xmlns="http://www.w3.org/2000/svg" viewBox="0 0 60 90">
    <ellipse cx="30" cy="12" rx="20" ry="12" fill="#5D4037"/>
    <ellipse cx="30" cy="22" rx="16" ry="18" fill="#ffdbac"/>
    <path d="M14 18 Q20 8 30 10 Q40 8 46 18" fill="#5D4037"/>
    <ellipse cx="24" cy="22" rx="3" ry="4" fill="#333"/>
    <ellipse cx="36" cy="22" rx="3" ry="4" fill="#333"/>
    <circle cx="25" cy="21" r="1.2" fill="#fff"/>
    <circle cx="37" cy="21" r="1.2" fill="#fff"/>
    <line x1="20" y1="16" x2="28" y2="17" stroke="#5D4037" stroke-width="1.5"/>
    <line x1="32" y1="17" x2="40" y2="16" stroke="#5D4037" stroke-width="1.5"/>
    <path d="M30 24 L30 28 L27 30" stroke="#d4a574" stroke-width="1.5" fill="none"/>
    <path d="M24 33 Q30 38 36 33" stroke="#333" stroke-width="1.5" fill="none"/>
    <ellipse cx="14" cy="22" rx="3" ry="5" fill="#ffdbac"/>
    <ellipse cx="46" cy="22" rx="3" ry="5" fill="#ffdbac"/>
    <rect x="15" y="40" width="30" height="28" fill="#2196F3" rx="4"/>
    <path d="M24 40 L30 46 L36 40" stroke="#1976D2" stroke-width="2" fill="none"/>
    <rect x="5" y="42" width="12" height="8" fill="#ffdbac" rx="3"/>
    <rect x="43" y="42" width="12" height="8" fill="#ffdbac" rx="3"/>
    <ellipse cx="8" cy="52" rx="6" ry="5" fill="#ffdbac"/>
    <ellipse cx="52" cy="52" rx="6" ry="5" fill="#ffdbac"/>
    <rect x="17" y="66" width="11" height="22" fill="#1565C0" rx="2"/>
    <rect x="32" y="66" width="11" height="22" fill="#1565C0" rx="2"/>
    <rect x="16" y="86" width="13" height="4" fill="#fff" rx="2"/>
    <rect x="31" y="86" width="13" height="4" fill="#fff" rx="2"/>
</svg>
